<svg width="25" height="25" viewBox="0 0 25 25" fill="none" xmlns="http://www.w3.org/2000/svg">
<path d="M9.71042 11.3588C9.6167 11.4517 9.5423 11.5623 9.49153 11.6842C9.44076 11.8061 9.41463 11.9368 9.41463 12.0688C9.41463 12.2008 9.44076 12.3315 9.49153 12.4534C9.5423 12.5752 9.6167 12.6858 9.71042 12.7788C9.89779 12.965 10.1512 13.0696 10.4154 13.0696C10.6796 13.0696 10.9331 12.965 11.1204 12.7788C11.2142 12.6858 11.2885 12.5752 11.3393 12.4534C11.3901 12.3315 11.4162 12.2008 11.4162 12.0688C11.4162 11.9368 11.3901 11.8061 11.3393 11.6842C11.2885 11.5623 11.2142 11.4517 11.1204 11.3588C10.9331 11.1725 10.6796 11.068 10.4154 11.068C10.1512 11.068 9.89779 11.1725 9.71042 11.3588ZM12.1804 13.8388C11.9942 14.0261 11.8896 14.2796 11.8896 14.5438C11.8896 14.808 11.9942 15.0614 12.1804 15.2488C12.2734 15.3425 12.384 15.4169 12.5058 15.4677C12.6277 15.5184 12.7584 15.5446 12.8904 15.5446C13.0224 15.5446 13.1531 15.5184 13.275 15.4677C13.3969 15.4169 13.5075 15.3425 13.6004 15.2488C13.7867 15.0614 13.8912 14.808 13.8912 14.5438C13.8912 14.2796 13.7867 14.0261 13.6004 13.8388C13.5075 13.745 13.3969 13.6707 13.275 13.6199C13.1531 13.5691 13.0224 13.543 12.8904 13.543C12.7584 13.543 12.6277 13.5691 12.5058 13.6199C12.384 13.6707 12.2734 13.745 12.1804 13.8388ZM21.1804 3.83877C20.0926 2.742 18.6237 2.10703 17.0796 2.06605C15.5354 2.02507 14.0349 2.58124 12.8904 3.61877C11.7513 2.59335 10.2629 2.04275 8.73065 2.07994C7.1984 2.11713 5.73849 2.73929 4.65043 3.81877C3.56944 4.90861 2.94727 6.37131 2.91193 7.90592C2.87659 9.44053 3.43076 10.9303 4.46043 12.0688C3.6906 12.9294 3.18546 13.9939 3.00564 15.1345C2.82581 16.2751 2.97893 17.4434 3.44662 18.4991C3.91432 19.5549 4.67671 20.4532 5.64233 21.0864C6.60794 21.7196 7.73576 22.0607 8.89043 22.0688C10.3706 22.0704 11.7978 21.5173 12.8904 20.5188C14.0301 21.5471 15.5206 22.0995 17.0553 22.0623C18.5899 22.0251 20.0519 21.4011 21.1404 20.3188C22.22 19.2276 22.8404 17.7642 22.8739 16.2296C22.9073 14.695 22.3514 13.206 21.3204 12.0688C22.3514 10.9316 22.9073 9.44251 22.8739 7.90792C22.8404 6.37332 22.22 4.90991 21.1404 3.81877L21.1804 3.83877ZM19.7204 5.23877C20.4159 5.95416 20.8188 6.90361 20.8503 7.90082C20.8817 8.89802 20.5394 9.87098 19.8904 10.6288L14.3304 5.06877C15.0948 4.43451 16.0648 4.10168 17.0576 4.13299C18.0504 4.16431 18.9975 4.5576 19.7204 5.23877ZM6.06043 18.8988C5.36499 18.1834 4.96201 17.2339 4.93056 16.2367C4.89911 15.2395 5.24146 14.2666 5.89043 13.5088L11.4904 19.1088C10.7175 19.7468 9.73684 20.078 8.73538 20.0393C7.73391 20.0006 6.78173 19.5946 6.06043 18.8988ZM19.7204 18.8988C18.9612 19.6249 17.951 20.0302 16.9004 20.0302C15.8498 20.0302 14.8397 19.6249 14.0804 18.8988L6.08043 10.8988C5.33542 10.1493 4.91725 9.13552 4.91725 8.07877C4.91725 7.02203 5.33542 6.00822 6.08043 5.25877C6.82987 4.51377 7.84368 4.0956 8.90043 4.0956C9.95717 4.0956 10.971 4.51377 11.7204 5.25877L19.7204 13.2588C20.4654 14.0082 20.8836 15.022 20.8836 16.0788C20.8836 17.1355 20.4654 18.1493 19.7204 18.8988ZM14.6604 11.3588C14.5667 11.4517 14.4923 11.5623 14.4415 11.6842C14.3908 11.8061 14.3646 11.9368 14.3646 12.0688C14.3646 12.2008 14.3908 12.3315 14.4415 12.4534C14.4923 12.5752 14.5667 12.6858 14.6604 12.7788C14.8478 12.965 15.1012 13.0696 15.3654 13.0696C15.6296 13.0696 15.8831 12.965 16.0704 12.7788C16.1642 12.6858 16.2385 12.5752 16.2893 12.4534C16.3401 12.3315 16.3662 12.2008 16.3662 12.0688C16.3662 11.9368 16.3401 11.8061 16.2893 11.6842C16.2385 11.5623 16.1642 11.4517 16.0704 11.3588C15.8831 11.1725 15.6296 11.068 15.3654 11.068C15.1012 11.068 14.8478 11.1725 14.6604 11.3588ZM12.1804 8.88877C11.9942 9.07614 11.8896 9.32959 11.8896 9.59377C11.8896 9.85796 11.9942 10.1114 12.1804 10.2988C12.2734 10.3925 12.384 10.4669 12.5058 10.5177C12.6277 10.5684 12.7584 10.5946 12.8904 10.5946C13.0224 10.5946 13.1531 10.5684 13.275 10.5177C13.3969 10.4669 13.5075 10.3925 13.6004 10.2988C13.7867 10.1114 13.8912 9.85796 13.8912 9.59377C13.8912 9.32959 13.7867 9.07614 13.6004 8.88877C13.5075 8.79504 13.3969 8.72065 13.275 8.66988C13.1531 8.61911 13.0224 8.59297 12.8904 8.59297C12.7584 8.59297 12.6277 8.61911 12.5058 8.66988C12.384 8.72065 12.2734 8.79504 12.1804 8.88877Z" fill="#1073E8"/>
</svg>
