<svg width="517" height="517" viewBox="0 0 517 517" fill="none" xmlns="http://www.w3.org/2000/svg">
<path fill-rule="evenodd" clip-rule="evenodd" d="M499.208 247.281C492.777 269.468 469.577 282.241 447.389 275.81C446.17 275.457 444.979 275.053 443.819 274.601C440.064 273.14 435.815 272.976 432.285 274.919C424.877 278.998 424.233 289.552 430.067 295.675C446.319 312.732 456.296 335.821 456.296 361.24C456.296 373.949 453.802 386.076 449.277 397.157C446.397 404.21 446.159 412.243 449.833 418.916C455.167 428.605 467.134 432.11 478.155 433.041C480.871 433.27 483.604 433.77 486.322 434.558C508.509 440.989 521.282 464.189 514.851 486.377C508.42 508.564 485.22 521.337 463.032 514.906C440.845 508.475 428.071 485.275 434.503 463.087C434.716 462.351 434.948 461.624 435.198 460.909C436.829 456.237 437.065 451.022 434.679 446.688C430.254 438.651 419.427 436.973 411.654 441.845C397.038 451.007 379.754 456.304 361.233 456.304C334.598 456.304 310.521 445.35 293.262 427.701C287.222 421.525 279.605 416.838 271.016 415.911C255.586 414.244 241.876 425.792 229.903 435.667C229.773 435.775 229.641 435.881 229.51 435.988C211.515 450.474 185.184 447.63 170.698 429.635C156.212 411.641 159.056 385.31 177.05 370.824C195.045 356.338 221.376 359.182 235.862 377.176C236.35 377.783 236.819 378.4 237.269 379.025C240.144 383.026 244.264 386.197 249.162 386.726C259.17 387.807 267.139 378.199 266.417 368.159C266.253 365.874 266.169 363.567 266.169 361.24C266.169 308.738 308.731 266.177 361.233 266.177C365.847 266.177 370.384 266.506 374.822 267.141C382.485 268.238 390.429 267.519 397.21 263.785C410.329 256.562 414.804 239.92 418.477 225.402C418.596 224.931 418.723 224.461 418.86 223.991C425.291 201.804 448.491 189.031 470.678 195.462C492.866 201.893 505.639 225.093 499.208 247.281Z" fill="white"/>
<path fill-rule="evenodd" clip-rule="evenodd" d="M55.8347 127.682C78.6878 124.307 99.9494 140.098 103.324 162.951C103.509 164.207 103.637 165.458 103.709 166.702C103.94 170.724 105.557 174.658 108.792 177.06C115.581 182.102 125.446 178.3 128.59 170.449C137.347 148.578 154.199 129.906 177.317 119.339C188.877 114.056 200.943 111.283 212.903 110.792C220.515 110.48 227.921 107.356 232.463 101.24C239.057 92.3609 237.271 80.02 233.537 69.6094C232.618 67.0453 231.937 64.3531 231.523 61.555C228.149 38.702 243.939 17.4403 266.792 14.0658C289.646 10.6913 310.907 26.4818 314.282 49.3349C317.656 72.188 301.866 93.4496 279.013 96.8241C278.252 96.9364 277.493 97.0275 276.737 97.0978C271.81 97.5557 266.969 99.5088 264.018 103.481C258.549 110.845 261.523 121.389 269.185 126.433C283.593 135.916 295.596 149.435 303.296 166.28C314.37 190.507 314.415 216.962 305.535 239.998C302.428 248.057 301.332 256.931 304.059 265.126C308.956 279.849 325.152 287.515 339.108 294.295C339.262 294.369 339.416 294.445 339.569 294.522C360.225 304.866 368.584 329.996 358.241 350.652C347.897 371.307 322.767 379.667 302.111 369.323C281.455 358.979 273.096 333.849 283.44 313.194C283.789 312.496 284.156 311.812 284.538 311.142C286.982 306.865 288.152 301.802 286.598 297.128C283.422 287.58 271.375 284.327 262.547 289.156C260.537 290.255 258.472 291.291 256.355 292.259C208.605 314.084 152.202 293.068 130.377 245.318C128.458 241.12 126.87 236.855 125.603 232.553C123.415 225.128 119.459 218.202 113.244 213.587C101.222 204.658 84.2278 207.507 69.4977 210.202C69.02 210.289 68.539 210.369 68.0548 210.44C45.2018 213.815 23.9401 198.024 20.5656 175.171C17.1911 152.318 32.9816 131.056 55.8347 127.682Z" fill="white"/>
<path fill-rule="evenodd" clip-rule="evenodd" d="M499.208 247.281C492.777 269.468 469.576 282.241 447.389 275.81C446.17 275.457 444.98 275.053 443.819 274.601C440.064 273.14 435.814 272.976 432.284 274.919C424.875 278.998 424.232 289.554 430.066 295.677C446.316 312.734 456.293 335.822 456.293 361.24C456.293 413.742 413.731 456.304 361.229 456.304C308.727 456.304 266.166 413.742 266.166 361.24C266.166 308.738 308.727 266.177 361.229 266.177C365.844 266.177 370.382 266.506 374.821 267.141C382.484 268.238 390.428 267.519 397.21 263.785C410.329 256.563 414.803 239.92 418.477 225.401C418.596 224.931 418.723 224.461 418.859 223.991C425.291 201.804 448.491 189.031 470.678 195.462C492.866 201.893 505.639 225.093 499.208 247.281Z" fill="white"/>
<path fill-rule="evenodd" clip-rule="evenodd" d="M55.8261 127.682C78.6792 124.308 99.9409 140.098 103.315 162.951C103.501 164.207 103.628 165.459 103.7 166.703C103.932 170.725 105.549 174.658 108.783 177.06C115.572 182.102 125.438 178.3 128.581 170.45C137.338 148.579 154.19 129.907 177.309 119.34C225.059 97.5139 281.462 118.53 303.287 166.28C325.113 214.031 304.097 270.433 256.347 292.259C208.596 314.085 152.194 293.069 130.368 245.318C128.449 241.12 126.862 236.856 125.594 232.554C123.407 225.128 119.45 218.202 113.236 213.587C101.214 204.659 84.2193 207.507 69.4892 210.202C69.0115 210.289 68.5305 210.369 68.0463 210.44C45.1932 213.815 23.9315 198.024 20.557 175.171C17.1825 152.318 32.9731 131.057 55.8261 127.682Z" fill="white"/>
<circle cx="361.229" cy="361.24" r="95.0633" fill="white"/>
<circle cx="216.828" cy="205.799" r="95.0633" transform="rotate(-114.564 216.828 205.799)" fill="white"/>
</svg>
