<svg width="250" height="150" viewBox="0 0 780 348" fill="none" xmlns="http://www.w3.org/2000/svg">
<path d="M205.355 169.212C206.32 167.401 207.95 166.134 210.243 165.409C212.537 164.685 215.555 164.323 219.297 164.323C223.159 164.323 226.237 164.685 228.531 165.409C230.824 166.134 232.393 167.401 233.238 169.212C234.204 171.022 234.747 172.652 234.868 174.101C235.109 175.428 235.23 177.48 235.23 180.257V288.351C235.23 291.128 235.109 293.24 234.868 294.689C234.747 296.017 234.204 297.525 233.238 299.215C231.428 302.474 226.298 304.104 217.848 304.104C209.519 304.104 204.872 301.147 203.906 295.232C198.836 301.026 191.775 303.923 182.722 303.923C171.858 303.923 161.96 299.215 153.027 289.8C144.095 280.264 139.629 269.219 139.629 256.665C139.629 243.991 144.095 232.886 153.027 223.35C162.081 213.814 171.979 209.046 182.722 209.046C191.654 209.046 198.595 212.063 203.544 218.099V180.076C203.544 177.299 203.604 175.247 203.725 173.919C203.967 172.471 204.51 170.902 205.355 169.212ZM176.022 267.529C179.161 270.788 182.963 272.418 187.429 272.418C191.896 272.418 195.577 270.788 198.474 267.529C201.492 264.27 203.001 260.709 203.001 256.846C203.001 252.863 201.552 249.181 198.655 245.802C195.879 242.422 192.077 240.732 187.248 240.732C182.42 240.732 178.557 242.422 175.66 245.802C172.763 249.061 171.315 252.682 171.315 256.665C171.315 260.649 172.884 264.27 176.022 267.529ZM249.653 224.798C249.653 222.022 249.713 219.97 249.834 218.642C250.075 217.194 250.619 215.564 251.464 213.753C253.154 210.615 257.861 209.046 265.587 209.046C271.381 209.046 275.485 210.072 277.899 212.124C279.951 213.814 281.037 216.409 281.158 219.91C281.279 221.117 281.339 222.867 281.339 225.16V288.533C281.339 291.309 281.218 293.421 280.977 294.87C280.856 296.198 280.313 297.767 279.347 299.577C277.778 302.716 273.131 304.285 265.405 304.285C257.801 304.285 253.154 302.655 251.464 299.396C250.619 297.586 250.075 296.017 249.834 294.689C249.713 293.361 249.653 291.249 249.653 288.351V224.798ZM279.347 191.302C278.502 192.991 276.933 194.199 274.64 194.923C272.346 195.647 269.268 196.009 265.405 196.009C261.663 196.009 258.646 195.647 256.352 194.923C254.059 194.199 252.429 192.931 251.464 191.12C250.619 189.31 250.075 187.741 249.834 186.413C249.713 184.964 249.653 182.852 249.653 180.076C249.653 177.299 249.713 175.247 249.834 173.919C250.075 172.471 250.619 170.902 251.464 169.212C253.154 165.953 257.861 164.323 265.587 164.323C273.191 164.323 277.778 165.953 279.347 169.212C280.313 171.022 280.856 172.652 280.977 174.101C281.218 175.428 281.339 177.48 281.339 180.257C281.339 183.033 281.218 185.145 280.977 186.594C280.856 187.922 280.313 189.491 279.347 191.302ZM296.527 295.775C294.234 294.327 293.087 292.033 293.087 288.895C293.087 285.756 295.38 280.988 299.967 274.591C301.295 272.539 303.408 271.513 306.305 271.513C309.322 271.513 313.366 273.021 318.436 276.039C323.506 278.936 328.093 280.385 332.197 280.385C339.56 280.385 343.241 278.936 343.241 276.039C343.241 273.746 339.198 272.056 331.11 270.969C323.506 269.883 315.961 267.046 308.477 262.459C304.977 260.287 302.08 256.907 299.786 252.32C297.493 247.612 296.346 242.06 296.346 235.662C296.346 216.59 309.443 207.054 335.637 207.054C344.207 207.054 353.019 209.106 362.072 213.21C366.297 215.142 368.409 217.556 368.409 220.453C368.409 223.35 367.081 226.911 364.426 231.135C361.77 235.36 359.054 237.473 356.278 237.473C354.83 237.473 352.114 236.567 348.13 234.757C344.268 232.946 340.043 232.041 335.456 232.041C328.334 232.041 324.773 233.369 324.773 236.024C324.773 239.645 328.877 241.999 337.085 243.086C345.052 243.931 352.777 246.224 360.261 249.966C363.762 251.656 366.659 254.613 368.952 258.838C371.367 262.942 372.574 268.133 372.574 274.41C372.574 280.686 371.367 286.058 368.952 290.524C366.659 294.87 363.4 298.129 359.175 300.302C351.45 304.044 341.733 305.915 330.024 305.915C318.436 305.915 307.27 302.535 296.527 295.775ZM476.37 245.258C476.37 252.622 474.499 258.114 470.757 261.735C467.135 265.236 463.092 266.986 458.626 266.986H415.713C415.713 270.366 417.705 273.203 421.689 275.496C425.672 277.789 429.655 278.936 433.639 278.936C440.64 278.936 446.132 278.212 450.116 276.763L452.107 276.039C455.004 274.711 457.418 274.047 459.35 274.047C463.212 274.047 466.532 276.763 469.308 282.195C470.877 285.454 471.662 288.231 471.662 290.524C471.662 301.267 458.807 306.639 433.096 306.639C424.163 306.639 416.196 305.13 409.195 302.112C402.315 298.974 396.943 294.87 393.081 289.8C385.476 280.023 381.674 269.098 381.674 257.028C381.674 241.818 386.562 229.687 396.34 220.634C406.238 211.46 418.55 206.873 433.277 206.873C450.055 206.873 462.367 212.788 470.214 224.617C474.318 230.894 476.37 237.774 476.37 245.258ZM438.165 250.509C442.752 250.509 445.046 248.578 445.046 244.715C445.046 241.939 443.959 239.706 441.787 238.016C439.735 236.326 436.717 235.481 432.733 235.481C428.871 235.481 425.008 237.111 421.145 240.37C417.283 243.508 415.351 246.888 415.351 250.509H438.165ZM550.106 219.004C550.831 212.245 555.599 208.865 564.41 208.865C569.118 208.865 572.619 209.227 574.912 209.951C577.206 210.675 578.775 211.943 579.62 213.753C580.585 215.564 581.129 217.194 581.249 218.642C581.491 219.97 581.611 222.022 581.611 224.798V288.17C581.611 290.947 581.491 293.059 581.249 294.508C581.129 295.835 580.646 297.405 579.801 299.215C578.111 302.354 573.946 303.923 567.307 303.923C560.789 303.923 556.383 303.138 554.09 301.569C551.917 299.879 550.65 297.465 550.287 294.327C545.821 300.724 538.337 303.923 527.836 303.923C517.455 303.923 507.798 299.155 498.865 289.619C489.933 280.083 485.467 269.038 485.467 256.484C485.467 243.81 489.933 232.765 498.865 223.35C507.919 213.814 517.817 209.046 528.56 209.046C532.664 209.046 536.406 209.77 539.786 211.219C543.166 212.667 545.519 214.055 546.847 215.383C548.175 216.59 549.261 217.797 550.106 219.004ZM517.153 256.665C517.153 260.649 518.722 264.27 521.86 267.529C524.999 270.668 528.801 272.237 533.267 272.237C537.734 272.237 541.415 270.607 544.312 267.348C547.33 264.089 548.839 260.528 548.839 256.665C548.839 252.682 547.39 249 544.493 245.621C541.717 242.241 537.915 240.551 533.086 240.551C528.379 240.551 524.516 242.241 521.498 245.621C518.601 249 517.153 252.682 517.153 256.665ZM596.767 295.775C594.473 294.327 593.327 292.033 593.327 288.895C593.327 285.756 595.62 280.988 600.207 274.591C601.535 272.539 603.647 271.513 606.544 271.513C609.562 271.513 613.606 273.021 618.676 276.039C623.745 278.936 628.332 280.385 632.436 280.385C639.8 280.385 643.481 278.936 643.481 276.039C643.481 273.746 639.438 272.056 631.35 270.969C623.745 269.883 616.201 267.046 608.717 262.459C605.217 260.287 602.32 256.907 600.026 252.32C597.733 247.612 596.586 242.06 596.586 235.662C596.586 216.59 609.683 207.054 635.877 207.054C644.447 207.054 653.259 209.106 662.312 213.21C666.537 215.142 668.649 217.556 668.649 220.453C668.649 223.35 667.321 226.911 664.666 231.135C662.01 235.36 659.294 237.473 656.518 237.473C655.069 237.473 652.353 236.567 648.37 234.757C644.507 232.946 640.283 232.041 635.696 232.041C628.574 232.041 625.013 233.369 625.013 236.024C625.013 239.645 629.117 241.999 637.325 243.086C645.292 243.931 653.017 246.224 660.501 249.966C664.002 251.656 666.899 254.613 669.192 258.838C671.606 262.942 672.814 268.133 672.814 274.41C672.814 280.686 671.606 286.058 669.192 290.524C666.899 294.87 663.64 298.129 659.415 300.302C651.69 304.044 641.972 305.915 630.264 305.915C618.676 305.915 607.51 302.535 596.767 295.775ZM766.101 209.951C773.223 213.089 776.784 216.892 776.784 221.358C776.784 223.531 776.301 225.583 775.335 227.514C774.369 229.446 773.887 230.472 773.887 230.592L726.448 336.695C725.482 338.989 724.637 340.739 723.913 341.946C723.309 343.153 722.283 344.3 720.835 345.386C719.386 346.473 717.576 347.016 715.403 347.016C713.23 347.016 710.031 346.111 705.807 344.3C698.685 341.162 695.124 337.42 695.124 333.074C695.124 330.177 700.918 316.356 712.506 291.611L676.474 230.954C674.06 226.971 672.853 224.014 672.853 222.082C672.853 218.22 676.112 214.357 682.631 210.494C686.735 208.08 689.933 206.873 692.227 206.873C694.52 206.873 696.391 207.356 697.84 208.321C699.288 209.287 700.314 210.313 700.918 211.4C701.642 212.365 704.962 217.978 710.876 228.238C716.912 238.378 722.646 247.854 728.077 256.665C728.681 254.734 731.94 247.31 737.855 234.395C743.77 221.358 746.908 214.417 747.27 213.572C747.753 212.727 748.477 211.701 749.443 210.494C751.012 208.442 753.185 207.416 755.961 207.416C758.858 207.416 762.238 208.261 766.101 209.951Z" fill="white"/>
<path fill-rule="evenodd" clip-rule="evenodd" d="M157.425 77.9779C155.397 84.9745 148.081 89.0024 141.084 86.9744C140.7 86.863 140.324 86.7356 139.958 86.5931C138.774 86.1323 137.434 86.0804 136.321 86.6932C133.984 87.9795 133.781 91.308 135.621 93.239C140.746 98.6177 143.891 105.898 143.891 113.914C143.891 116.541 143.554 119.089 142.919 121.518C142.137 124.508 142.168 127.735 143.659 130.443L144.104 131.25C145.91 134.53 149.762 135.991 153.359 137.034C160.356 139.062 164.383 146.378 162.355 153.374C160.327 160.371 153.011 164.399 146.015 162.371C139.018 160.343 134.99 153.027 137.018 146.03C137.086 145.798 137.159 145.568 137.238 145.342C137.752 143.869 137.827 142.225 137.074 140.858C135.679 138.324 132.265 137.795 129.815 139.332C125.206 142.221 119.755 143.891 113.914 143.891C106.982 143.891 100.599 141.538 95.521 137.587C93.0033 135.628 90.1346 134.054 86.9631 133.711L82.4246 133.221C78.7014 132.819 75.2952 135.137 72.3782 137.485C66.7038 142.053 58.4006 141.156 53.8325 135.482C49.2644 129.807 50.1612 121.504 55.8356 116.936C61.51 112.368 69.8132 113.265 74.3813 118.939C74.5355 119.131 74.6835 119.325 74.8253 119.523C75.7318 120.784 77.0306 121.784 78.575 121.951C81.7302 122.291 84.2428 119.262 84.015 116.097C83.9631 115.376 83.9367 114.648 83.9367 113.914C83.9367 97.3579 97.3581 83.9366 113.914 83.9366C116.801 83.9366 119.727 83.5097 122.256 82.1174L126.304 79.8889C129.584 78.0827 131.045 74.2305 132.087 70.6337C134.115 63.6371 141.431 59.6092 148.428 61.6372C155.425 63.6652 159.453 70.9812 157.425 77.9779Z" fill="white"/>
<path fill-rule="evenodd" clip-rule="evenodd" d="M17.6072 40.2633C24.8137 39.1992 31.5184 44.1786 32.5825 51.3851C32.641 51.7811 32.6812 52.1755 32.7038 52.5676C32.777 53.8362 33.2869 55.0766 34.307 55.8343C36.4482 57.4245 39.5598 56.2253 40.5512 53.7493C43.3127 46.8526 48.6268 40.9647 55.9169 37.6326C58.3063 36.5404 60.7644 35.7884 63.2368 35.3564C66.2819 34.8242 69.203 33.4543 71.0461 30.9726L71.5956 30.2328C73.8284 27.2264 73.5556 23.1155 73.0085 19.4108C71.9444 12.2043 76.9238 5.49964 84.1303 4.43553C91.3368 3.37141 98.0415 8.35081 99.1056 15.5573C100.17 22.7639 95.1904 29.4685 87.9838 30.5326C87.7442 30.568 87.505 30.5967 87.2667 30.6189C85.7132 30.7633 84.1867 31.3792 83.2565 32.6317C81.5319 34.9539 82.4698 38.2787 84.8859 39.8689C89.4297 42.8596 93.215 47.1226 95.6431 52.4349C98.525 58.7399 99.0382 65.5232 97.5557 71.7841C96.8207 74.8883 96.5813 78.1518 97.5882 81.1788L99.0291 85.5103C100.211 89.0637 103.735 91.1981 107.083 92.8749C113.597 96.1367 116.233 104.061 112.971 110.575C109.71 117.088 101.785 119.725 95.2714 116.463C88.7578 113.201 86.1217 105.276 89.3835 98.7628C89.4937 98.5429 89.6091 98.3274 89.7296 98.1164C90.5001 96.7675 90.8693 95.1707 90.379 93.6967C89.3773 90.6854 85.5779 89.6594 82.7938 91.1824C82.1596 91.5293 81.5085 91.856 80.8408 92.1612C65.7831 99.0437 47.9971 92.4165 41.1145 77.3588C39.9144 74.7333 38.3098 72.2496 35.9922 70.5284L32.2826 67.7734C29.2762 65.5406 25.1654 65.8134 21.4607 66.3604C14.2542 67.4245 7.5495 62.4451 6.48538 55.2386C5.42126 48.0321 10.4007 41.3274 17.6072 40.2633Z" fill="white"/>
<path fill-rule="evenodd" clip-rule="evenodd" d="M157.425 77.9779C155.397 84.9745 148.081 89.0024 141.084 86.9744C140.7 86.863 140.324 86.7356 139.958 86.5931C138.774 86.1323 137.434 86.0804 136.321 86.6932C133.984 87.9795 133.781 91.308 135.621 93.239C140.746 98.6177 143.892 105.898 143.892 113.914C143.892 130.47 130.47 143.891 113.914 143.891C97.3581 143.891 83.9368 130.47 83.9368 113.914C83.9368 97.3579 97.3581 83.9366 113.914 83.9366C116.801 83.9366 119.727 83.5097 122.256 82.1174L126.304 79.8889C129.584 78.0827 131.045 74.2305 132.087 70.6337C134.116 63.6371 141.431 59.6092 148.428 61.6372C155.425 63.6652 159.453 70.9812 157.425 77.9779Z" fill="white"/>
<path fill-rule="evenodd" clip-rule="evenodd" d="M17.6071 40.2633C24.8136 39.1992 31.5183 44.1786 32.5824 51.3851C32.6409 51.781 32.6811 52.1755 32.7037 52.5676C32.7769 53.8361 33.2868 55.0766 34.3069 55.8342C36.4481 57.4244 39.5597 56.2252 40.5511 53.7493C43.3126 46.8526 48.6267 40.9647 55.9168 37.6325C70.9744 30.75 88.7605 37.3772 95.643 52.4349C102.526 67.4926 95.8983 85.2786 80.8407 92.1612C65.783 99.0437 47.997 92.4165 41.1144 77.3588C39.9143 74.7333 38.3097 72.2495 35.9921 70.5284L32.2825 67.7733C29.2761 65.5406 25.1653 65.8134 21.4606 66.3604C14.2541 67.4245 7.5494 62.4451 6.48528 55.2386C5.42116 48.0321 10.4006 41.3274 17.6071 40.2633Z" fill="white"/>
<circle cx="113.914" cy="113.914" r="29.9774" fill="white"/>
<circle cx="68.3788" cy="64.8969" r="29.9774" transform="rotate(-114.564 68.3788 64.8969)" fill="white"/>
</svg>
