<svg width="294" height="131" viewBox="0 0 294 131" fill="none" xmlns="http://www.w3.org/2000/svg">
<path d="M77.3404 63.4823C77.7041 62.8004 78.3179 62.3231 79.1816 62.0503C80.0454 61.7775 81.1819 61.6411 82.5912 61.6411C84.046 61.6411 85.2052 61.7775 86.069 62.0503C86.9328 62.3231 87.5238 62.8004 87.842 63.4823C88.2057 64.1642 88.4102 64.778 88.4557 65.3235C88.5466 65.8236 88.5921 66.5964 88.5921 67.642V108.353C88.5921 109.398 88.5466 110.194 88.4557 110.739C88.4102 111.239 88.2057 111.808 87.842 112.444C87.1601 113.671 85.228 114.285 82.0457 114.285C78.9089 114.285 77.1586 113.171 76.7949 110.944C74.8855 113.126 72.2261 114.217 68.8165 114.217C64.725 114.217 60.9971 112.444 57.633 108.898C54.2689 105.307 52.5868 101.147 52.5868 96.419C52.5868 91.6455 54.2689 87.4631 57.633 83.8717C61.0426 80.2802 64.7704 78.4845 68.8165 78.4845C72.1806 78.4845 74.7946 79.621 76.6585 81.8941V67.5738C76.6585 66.5282 76.6813 65.7554 76.7267 65.2553C76.8176 64.7098 77.0222 64.1188 77.3404 63.4823ZM66.2934 100.51C67.4754 101.738 68.9074 102.352 70.5895 102.352C72.2715 102.352 73.6581 101.738 74.7492 100.51C75.8857 99.283 76.454 97.9419 76.454 96.4872C76.454 94.9869 75.9084 93.6004 74.8173 92.3275C73.7717 91.0545 72.3397 90.4181 70.5213 90.4181C68.7028 90.4181 67.2481 91.0545 66.157 92.3275C65.0659 93.5549 64.5204 94.9187 64.5204 96.419C64.5204 97.9192 65.1114 99.283 66.2934 100.51ZM94.024 84.4172C94.024 83.3716 94.0467 82.5988 94.0922 82.0987C94.1831 81.5531 94.3877 80.9394 94.7059 80.2575C95.3424 79.0755 97.1154 78.4845 100.025 78.4845C102.207 78.4845 103.753 78.8709 104.662 79.6438C105.435 80.2802 105.844 81.2576 105.889 82.576C105.935 83.0306 105.958 83.6898 105.958 84.5536V108.421C105.958 109.466 105.912 110.262 105.821 110.807C105.776 111.308 105.571 111.899 105.207 112.58C104.616 113.762 102.866 114.353 99.9567 114.353C97.0926 114.353 95.3424 113.74 94.7059 112.512C94.3877 111.83 94.1831 111.239 94.0922 110.739C94.0467 110.239 94.024 109.444 94.024 108.353V84.4172ZM105.207 71.8017C104.889 72.4382 104.298 72.8928 103.434 73.1656C102.571 73.4383 101.411 73.5747 99.9567 73.5747C98.5474 73.5747 97.4109 73.4383 96.5471 73.1656C95.6833 72.8928 95.0696 72.4154 94.7059 71.7335C94.3877 71.0516 94.1831 70.4606 94.0922 69.9605C94.0467 69.415 94.024 68.6194 94.024 67.5738C94.024 66.5282 94.0467 65.7554 94.0922 65.2553C94.1831 64.7098 94.3877 64.1188 94.7059 63.4823C95.3424 62.2549 97.1154 61.6411 100.025 61.6411C102.889 61.6411 104.616 62.2549 105.207 63.4823C105.571 64.1642 105.776 64.778 105.821 65.3235C105.912 65.8236 105.958 66.5964 105.958 67.642C105.958 68.6876 105.912 69.4832 105.821 70.0287C105.776 70.5288 105.571 71.1198 105.207 71.8017ZM111.678 111.148C110.814 110.603 110.382 109.739 110.382 108.557C110.382 107.375 111.246 105.579 112.973 103.17C113.473 102.397 114.269 102.011 115.36 102.011C116.497 102.011 118.02 102.579 119.929 103.715C121.838 104.807 123.566 105.352 125.111 105.352C127.885 105.352 129.271 104.807 129.271 103.715C129.271 102.852 127.748 102.215 124.702 101.806C121.838 101.397 118.997 100.329 116.178 98.6011C114.86 97.7828 113.769 96.5099 112.905 94.7824C112.041 93.0094 111.609 90.9182 111.609 88.5087C111.609 81.3258 116.542 77.7344 126.407 77.7344C129.635 77.7344 132.954 78.5072 136.363 80.0529C137.954 80.7803 138.75 81.6895 138.75 82.7806C138.75 83.8717 138.25 85.2128 137.25 86.8039C136.249 88.3951 135.227 89.1906 134.181 89.1906C133.635 89.1906 132.613 88.8497 131.112 88.1678C129.658 87.4858 128.066 87.1449 126.339 87.1449C123.657 87.1449 122.316 87.6449 122.316 88.6451C122.316 90.0089 123.861 90.8954 126.953 91.3046C129.953 91.6228 132.863 92.4866 135.681 93.8959C137 94.5323 138.091 95.6461 138.954 97.2373C139.864 98.7829 140.318 100.738 140.318 103.102C140.318 105.466 139.864 107.489 138.954 109.171C138.091 110.807 136.863 112.035 135.272 112.853C132.363 114.262 128.703 114.967 124.293 114.967C119.929 114.967 115.724 113.694 111.678 111.148Z" fill="#AFAFAF"/>
<path d="M179.41 92.1229C179.41 94.896 178.705 96.9645 177.296 98.3283C175.932 99.6467 174.409 100.306 172.727 100.306H156.565C156.565 101.579 157.316 102.647 158.816 103.511C160.316 104.375 161.816 104.807 163.316 104.807C165.953 104.807 168.022 104.534 169.522 103.988L170.272 103.715C171.363 103.215 172.272 102.965 173 102.965C174.454 102.965 175.705 103.988 176.75 106.034C177.341 107.261 177.637 108.307 177.637 109.171C177.637 113.217 172.795 115.24 163.112 115.24C159.748 115.24 156.747 114.672 154.111 113.535C151.519 112.353 149.496 110.807 148.041 108.898C145.177 105.216 143.745 101.101 143.745 96.5553C143.745 90.8272 145.587 86.2584 149.269 82.8488C152.997 79.3937 157.634 77.6662 163.18 77.6662C169.499 77.6662 174.136 79.8938 177.091 84.349C178.637 86.713 179.41 89.3043 179.41 92.1229ZM165.021 94.1004C166.749 94.1004 167.613 93.3731 167.613 91.9183C167.613 90.8727 167.203 90.0317 166.385 89.3952C165.612 88.7587 164.476 88.4405 162.976 88.4405C161.521 88.4405 160.066 89.0542 158.611 90.2817C157.156 91.4637 156.429 92.7366 156.429 94.1004H165.021ZM207.18 82.2351C207.453 79.6892 209.249 78.4163 212.567 78.4163C214.34 78.4163 215.659 78.5527 216.523 78.8255C217.386 79.0982 217.977 79.5756 218.296 80.2575C218.659 80.9394 218.864 81.5531 218.909 82.0987C219 82.5988 219.046 83.3716 219.046 84.4172V108.284C219.046 109.33 219 110.126 218.909 110.671C218.864 111.171 218.682 111.762 218.364 112.444C217.727 113.626 216.159 114.217 213.659 114.217C211.204 114.217 209.544 113.922 208.681 113.331C207.862 112.694 207.385 111.785 207.249 110.603C205.566 113.012 202.748 114.217 198.793 114.217C194.883 114.217 191.246 112.421 187.882 108.83C184.518 105.238 182.836 101.079 182.836 96.3508C182.836 91.5773 184.518 87.4176 187.882 83.8717C191.292 80.2802 195.019 78.4845 199.065 78.4845C200.611 78.4845 202.02 78.7573 203.293 79.3028C204.566 79.8484 205.453 80.3712 205.953 80.8712C206.453 81.3258 206.862 81.7805 207.18 82.2351ZM194.769 96.419C194.769 97.9192 195.36 99.283 196.542 100.51C197.724 101.692 199.156 102.283 200.838 102.283C202.521 102.283 203.907 101.67 204.998 100.442C206.135 99.2148 206.703 97.8737 206.703 96.419C206.703 94.9187 206.157 93.5322 205.066 92.2593C204.021 90.9863 202.589 90.3499 200.77 90.3499C198.997 90.3499 197.543 90.9863 196.406 92.2593C195.315 93.5322 194.769 94.9187 194.769 96.419ZM224.754 111.148C223.89 110.603 223.458 109.739 223.458 108.557C223.458 107.375 224.322 105.579 226.049 103.17C226.549 102.397 227.345 102.011 228.436 102.011C229.572 102.011 231.095 102.579 233.005 103.715C234.914 104.807 236.642 105.352 238.187 105.352C240.96 105.352 242.347 104.807 242.347 103.715C242.347 102.852 240.824 102.215 237.778 101.806C234.914 101.397 232.073 100.329 229.254 98.6011C227.936 97.7828 226.845 96.5099 225.981 94.7824C225.117 93.0094 224.685 90.9182 224.685 88.5087C224.685 81.3258 229.618 77.7344 239.483 77.7344C242.711 77.7344 246.029 78.5072 249.439 80.0529C251.03 80.7803 251.826 81.6895 251.826 82.7806C251.826 83.8717 251.326 85.2128 250.325 86.8039C249.325 88.3951 248.302 89.1906 247.257 89.1906C246.711 89.1906 245.688 88.8497 244.188 88.1678C242.733 87.4858 241.142 87.1449 239.415 87.1449C236.733 87.1449 235.391 87.6449 235.391 88.6451C235.391 90.0089 236.937 90.8954 240.029 91.3046C243.029 91.6228 245.938 92.4866 248.757 93.8959C250.075 94.5323 251.167 95.6461 252.03 97.2373C252.94 98.7829 253.394 100.738 253.394 103.102C253.394 105.466 252.94 107.489 252.03 109.171C251.167 110.807 249.939 112.035 248.348 112.853C245.438 114.262 241.779 114.967 237.369 114.967C233.005 114.967 228.8 113.694 224.754 111.148ZM288.528 78.8255C291.21 80.0075 292.551 81.4395 292.551 83.1216C292.551 83.9399 292.369 84.7127 292.006 85.4401C291.642 86.1675 291.46 86.5539 291.46 86.5993L273.594 126.56C273.23 127.424 272.912 128.083 272.639 128.537C272.412 128.992 272.025 129.424 271.48 129.833C270.934 130.242 270.252 130.447 269.434 130.447C268.616 130.447 267.411 130.106 265.82 129.424C263.138 128.242 261.797 126.833 261.797 125.196C261.797 124.105 263.979 118.9 268.343 109.58L254.773 86.7357C253.864 85.2355 253.409 84.1217 253.409 83.3943C253.409 81.9396 254.636 80.4848 257.091 79.0301C258.637 78.1208 259.842 77.6662 260.706 77.6662C261.569 77.6662 262.274 77.8481 262.82 78.2117C263.365 78.5754 263.751 78.9619 263.979 79.371C264.252 79.7347 265.502 81.8486 267.729 85.7128C270.002 89.5316 272.162 93.1003 274.208 96.419C274.435 95.6916 275.662 92.8957 277.89 88.0314C280.117 83.1216 281.299 80.5075 281.436 80.1893C281.618 79.8711 281.89 79.4847 282.254 79.0301C282.845 78.2572 283.663 77.8708 284.709 77.8708C285.8 77.8708 287.073 78.189 288.528 78.8255Z" fill="#1073E8"/>
<g opacity="0.88">
<path fill-rule="evenodd" clip-rule="evenodd" d="M59.2891 29.3679C58.5253 32.003 55.7699 33.5199 53.1349 32.7562C52.9901 32.7142 52.8487 32.6662 52.7109 32.6126C52.2649 32.439 51.7601 32.4195 51.3409 32.6503C50.4609 33.1348 50.3845 34.3884 51.0774 35.1156C53.0074 37.1413 54.1922 39.8834 54.1922 42.9022C54.1922 43.8916 54.0649 44.8514 53.8258 45.7659C53.5313 46.8923 53.5432 48.1073 54.1047 49.1272L54.2721 49.4312C54.9523 50.6667 56.4031 51.2169 57.7577 51.6095C60.3928 52.3733 61.9098 55.1287 61.146 57.7637C60.3822 60.3988 57.6269 61.9158 54.9918 61.152C52.3567 60.3882 50.8398 57.6329 51.6035 54.9978C51.629 54.9101 51.6566 54.8237 51.6863 54.7386C51.8801 54.1839 51.9081 53.5646 51.6247 53.0498C51.0993 52.0956 49.8136 51.8963 48.8906 52.4749C47.1548 53.5631 45.102 54.1922 42.9022 54.1922C40.2913 54.1922 37.8874 53.306 35.9749 51.8179C35.0267 51.0801 33.9463 50.4871 32.7518 50.3581L31.0427 50.1735C29.6405 50.0221 28.3576 50.895 27.259 51.7794C25.1219 53.4998 21.9948 53.1621 20.2744 51.025C18.5539 48.8879 18.8917 45.7608 21.0288 44.0404C23.1658 42.3199 26.293 42.6577 28.0134 44.7948C28.0715 44.8669 28.1272 44.9402 28.1806 45.0145C28.522 45.4896 29.0112 45.8661 29.5928 45.9289C30.7811 46.0572 31.7274 44.9164 31.6416 43.7243C31.6221 43.4528 31.6121 43.1787 31.6121 42.9022C31.6121 36.6669 36.6668 31.6121 42.9022 31.6121C43.9894 31.6121 45.0913 31.4513 46.0438 30.927L47.5683 30.0877C48.8038 29.4074 49.3539 27.9566 49.7466 26.602C50.5104 23.9669 53.2657 22.4499 55.9008 23.2137C58.5359 23.9775 60.0528 26.7328 59.2891 29.3679Z" fill="#AFAFAF"/>
<path fill-rule="evenodd" clip-rule="evenodd" d="M6.63116 15.1639C9.34527 14.7631 11.8704 16.6385 12.2711 19.3526C12.2932 19.5017 12.3083 19.6503 12.3168 19.7979C12.3444 20.2757 12.5364 20.7429 12.9206 21.0282C13.727 21.6271 14.8989 21.1755 15.2722 20.243C16.3123 17.6456 18.3137 15.4281 21.0593 14.1731C21.9592 13.7618 22.885 13.4786 23.8161 13.3158C24.963 13.1154 26.0631 12.5995 26.7573 11.6648L26.9642 11.3862C27.8051 10.2539 27.7024 8.70571 27.4964 7.31047C27.0956 4.59637 28.9709 2.07126 31.685 1.67049C34.3992 1.26973 36.9243 3.14506 37.325 5.85917C37.7258 8.57328 35.8505 11.0984 33.1364 11.4992C33.0461 11.5125 32.956 11.5233 32.8662 11.5316C32.2812 11.586 31.7063 11.818 31.3559 12.2897C30.7064 13.1643 31.0596 14.4165 31.9696 15.0154C33.6808 16.1417 35.1064 17.7472 36.0209 19.7479C37.1063 22.1225 37.2996 24.6772 36.7412 27.0352C36.4644 28.2043 36.3742 29.4334 36.7535 30.5734L37.2961 32.2048C37.7413 33.543 39.0685 34.3469 40.3296 34.9784C42.7827 36.2069 43.7755 39.1914 42.547 41.6445C41.3186 44.0977 38.3341 45.0905 35.8809 43.862C33.4278 42.6336 32.435 39.649 33.6634 37.1959C33.7049 37.1131 33.7484 37.0319 33.7938 36.9524C34.084 36.4444 34.223 35.8431 34.0383 35.2879C33.6611 34.1538 32.2301 33.7674 31.1816 34.341C30.9428 34.4716 30.6975 34.5947 30.4461 34.7096C24.7751 37.3017 18.0765 34.8058 15.4844 29.1348C15.0324 28.1459 14.4281 27.2105 13.5552 26.5623L12.1582 25.5247C11.0259 24.6838 9.4777 24.7865 8.08246 24.9925C5.36835 25.3933 2.84325 23.518 2.44248 20.8039C2.04171 18.0898 3.91705 15.5647 6.63116 15.1639Z" fill="#AFAFAF"/>
<path fill-rule="evenodd" clip-rule="evenodd" d="M59.2891 29.3679C58.5253 32.003 55.7699 33.5199 53.1349 32.7562C52.9901 32.7142 52.8487 32.6662 52.7109 32.6126C52.2649 32.439 51.7601 32.4195 51.3409 32.6503C50.4609 33.1348 50.3845 34.3884 51.0774 35.1156C53.0074 37.1413 54.1922 39.8834 54.1922 42.9022C54.1922 49.1375 49.1375 54.1922 42.9022 54.1922C36.6668 54.1922 31.6121 49.1375 31.6121 42.9022C31.6121 36.6669 36.6668 31.6121 42.9022 31.6121C43.9894 31.6121 45.0914 31.4513 46.0438 30.927L47.5683 30.0876C48.8038 29.4074 49.354 27.9566 49.7466 26.602C50.5104 23.9669 53.2657 22.4499 55.9008 23.2137C58.5359 23.9775 60.0528 26.7328 59.2891 29.3679Z" fill="#AFAFAF"/>
<path fill-rule="evenodd" clip-rule="evenodd" d="M6.63118 15.1639C9.34529 14.7631 11.8704 16.6385 12.2712 19.3526C12.2932 19.5017 12.3083 19.6503 12.3168 19.7979C12.3444 20.2757 12.5364 20.7429 12.9206 21.0282C13.727 21.6271 14.8989 21.1755 15.2723 20.243C16.3124 17.6456 18.3137 15.4281 21.0593 14.1731C26.7303 11.581 33.4289 14.077 36.021 19.748C38.6131 25.419 36.1171 32.1175 30.4461 34.7096C24.7751 37.3017 18.0766 34.8058 15.4845 29.1348C15.0325 28.146 14.4282 27.2106 13.5554 26.5623L12.1582 25.5247C11.0259 24.6838 9.47773 24.7865 8.08249 24.9926C5.36838 25.3933 2.84327 23.518 2.4425 20.8039C2.04174 18.0898 3.91707 15.5647 6.63118 15.1639Z" fill="#AFAFAF"/>
<circle cx="42.9022" cy="42.9021" r="11.29" fill="#1073E8"/>
<circle cx="25.7526" cy="24.4414" r="11.29" transform="rotate(-114.564 25.7526 24.4414)" fill="#1073E8"/>
</g>
</svg>
