<svg width="25" height="25" viewBox="0 0 25 25" fill="#1073E8" xmlns="http://www.w3.org/2000/svg">
<path d="M21.1096 11.5688C21.113 12.8887 20.8046 14.1907 20.2096 15.3688C19.504 16.7805 18.4193 17.968 17.077 18.7981C15.7347 19.6282 14.1878 20.0682 12.6096 20.0688C11.2897 20.0722 9.98767 19.7639 8.80956 19.1688L3.10956 21.0688L5.00956 15.3688C4.41449 14.1907 4.10612 12.8887 4.10956 11.5688C4.11017 9.99054 4.55017 8.44364 5.38028 7.10133C6.21038 5.75903 7.39781 4.67435 8.80956 3.96878C9.98767 3.37372 11.2897 3.06534 12.6096 3.06878H13.1096C15.1939 3.18378 17.1626 4.06355 18.6387 5.53964C20.1148 7.01574 20.9946 8.98444 21.1096 11.0688V11.5688Z" stroke="white" stroke-width="2" stroke-linecap="round" stroke-linejoin="round"/>
</svg>
