<svg width="335" height="19" viewBox="0 0 335 19" fill="none" xmlns="http://www.w3.org/2000/svg">
<path d="M162.916 13.784C163.684 13.784 164.281 13.4747 164.708 12.856C165.081 12.3227 165.268 11.656 165.268 10.856C165.268 10.0667 165.081 9.40533 164.708 8.872C164.281 8.25333 163.684 7.944 162.916 7.944C162.148 7.944 161.551 8.25333 161.124 8.872C160.751 9.40533 160.564 10.0667 160.564 10.856C160.564 11.656 160.751 12.3227 161.124 12.856C161.551 13.4747 162.148 13.784 162.916 13.784ZM162.916 15.224C161.615 15.224 160.585 14.8133 159.828 13.992C159.103 13.2027 158.74 12.1573 158.74 10.856C158.74 9.56533 159.108 8.52 159.844 7.72C160.591 6.90933 161.615 6.504 162.916 6.504C164.217 6.504 165.247 6.91467 166.004 7.736C166.729 8.52533 167.092 9.56533 167.092 10.856C167.092 12.1573 166.729 13.2027 166.004 13.992C165.247 14.8133 164.217 15.224 162.916 15.224ZM175.872 6.728V15H174.08V13.848H174.048C173.824 14.2533 173.488 14.584 173.04 14.84C172.603 15.096 172.155 15.224 171.696 15.224C169.638 15.224 168.608 14.1413 168.608 11.976V6.728H170.432V11.8C170.432 13.1227 170.96 13.784 172.016 13.784C173.371 13.784 174.048 13.032 174.048 11.528V6.728H175.872Z" fill="#515151"/>
<rect y="11" width="131" height="1" fill="#C4C4C4"/>
<rect x="204" y="11" width="131" height="1" fill="#C4C4C4"/>
</svg>
